<mxfile host="app.diagrams.net" modified="2022-12-15T22:51:41.196Z" agent="5.0 (Windows)" etag="guhB95fZWUj7lob0KjKS" version="20.6.2" type="github" pages="2">
  <diagram id="fuKtdBP3b1pDqYjjkKEj" name="Page-1">
    <mxGraphModel dx="1422" dy="752" grid="0" gridSize="10" guides="1" tooltips="1" connect="1" arrows="1" fold="1" page="1" pageScale="1" pageWidth="1400" pageHeight="850" math="0" shadow="0">
      <root>
        <mxCell id="0" />
        <mxCell id="1" parent="0" />
        <mxCell id="FMS0zSDaVmgN2Xn0Sk3r-1" value="" style="strokeWidth=2;html=1;shape=mxgraph.flowchart.start_2;whiteSpace=wrap;" parent="1" vertex="1">
          <mxGeometry x="66" y="90" width="30" height="30" as="geometry" />
        </mxCell>
        <mxCell id="FMS0zSDaVmgN2Xn0Sk3r-2" value="" style="endArrow=classic;html=1;rounded=0;exitX=1;exitY=0.5;exitDx=0;exitDy=0;exitPerimeter=0;" parent="1" source="FMS0zSDaVmgN2Xn0Sk3r-1" edge="1">
          <mxGeometry width="50" height="50" relative="1" as="geometry">
            <mxPoint x="439" y="240" as="sourcePoint" />
            <mxPoint x="137" y="105" as="targetPoint" />
          </mxGeometry>
        </mxCell>
        <mxCell id="FMS0zSDaVmgN2Xn0Sk3r-3" value="" style="rhombus;whiteSpace=wrap;html=1;" parent="1" vertex="1">
          <mxGeometry x="137" y="94.5" width="21" height="21" as="geometry" />
        </mxCell>
        <mxCell id="FMS0zSDaVmgN2Xn0Sk3r-4" value="" style="endArrow=classic;html=1;rounded=0;exitX=1;exitY=0.5;exitDx=0;exitDy=0;" parent="1" source="FMS0zSDaVmgN2Xn0Sk3r-3" edge="1">
          <mxGeometry width="50" height="50" relative="1" as="geometry">
            <mxPoint x="439" y="240" as="sourcePoint" />
            <mxPoint x="182" y="105" as="targetPoint" />
          </mxGeometry>
        </mxCell>
        <mxCell id="FMS0zSDaVmgN2Xn0Sk3r-5" value="Set Departure" style="rounded=1;whiteSpace=wrap;html=1;" parent="1" vertex="1">
          <mxGeometry x="183" y="75" width="120" height="60" as="geometry" />
        </mxCell>
        <mxCell id="FMS0zSDaVmgN2Xn0Sk3r-6" value="" style="endArrow=classic;html=1;rounded=0;exitX=1;exitY=0.5;exitDx=0;exitDy=0;" parent="1" source="FMS0zSDaVmgN2Xn0Sk3r-5" edge="1">
          <mxGeometry width="50" height="50" relative="1" as="geometry">
            <mxPoint x="439" y="240" as="sourcePoint" />
            <mxPoint x="342" y="105" as="targetPoint" />
          </mxGeometry>
        </mxCell>
        <mxCell id="FMS0zSDaVmgN2Xn0Sk3r-8" value="Set Destination" style="rounded=1;whiteSpace=wrap;html=1;" parent="1" vertex="1">
          <mxGeometry x="343" y="75" width="120" height="60" as="geometry" />
        </mxCell>
        <mxCell id="FMS0zSDaVmgN2Xn0Sk3r-9" value="" style="endArrow=classic;html=1;rounded=0;exitX=1;exitY=0.5;exitDx=0;exitDy=0;entryX=0;entryY=0.5;entryDx=0;entryDy=0;" parent="1" source="FMS0zSDaVmgN2Xn0Sk3r-8" target="FMS0zSDaVmgN2Xn0Sk3r-10" edge="1">
          <mxGeometry width="50" height="50" relative="1" as="geometry">
            <mxPoint x="439" y="240" as="sourcePoint" />
            <mxPoint x="498" y="105" as="targetPoint" />
          </mxGeometry>
        </mxCell>
        <mxCell id="FMS0zSDaVmgN2Xn0Sk3r-10" value="" style="rhombus;whiteSpace=wrap;html=1;" parent="1" vertex="1">
          <mxGeometry x="530" y="94.5" width="21" height="21" as="geometry" />
        </mxCell>
        <mxCell id="FMS0zSDaVmgN2Xn0Sk3r-11" value="&lt;i&gt;is trip possible?&lt;/i&gt;" style="text;html=1;align=center;verticalAlign=middle;resizable=0;points=[];autosize=1;strokeColor=none;fillColor=none;" parent="1" vertex="1">
          <mxGeometry x="491" y="66" width="104" height="26" as="geometry" />
        </mxCell>
        <mxCell id="FMS0zSDaVmgN2Xn0Sk3r-12" value="" style="endArrow=classic;html=1;rounded=0;exitX=0.5;exitY=1;exitDx=0;exitDy=0;" parent="1" source="FMS0zSDaVmgN2Xn0Sk3r-10" edge="1">
          <mxGeometry relative="1" as="geometry">
            <mxPoint x="414" y="215" as="sourcePoint" />
            <mxPoint x="541" y="184" as="targetPoint" />
          </mxGeometry>
        </mxCell>
        <mxCell id="FMS0zSDaVmgN2Xn0Sk3r-13" value="No" style="edgeLabel;resizable=0;html=1;align=center;verticalAlign=middle;" parent="FMS0zSDaVmgN2Xn0Sk3r-12" connectable="0" vertex="1">
          <mxGeometry relative="1" as="geometry" />
        </mxCell>
        <mxCell id="FMS0zSDaVmgN2Xn0Sk3r-14" value="&lt;div&gt;Error: Price &lt;br&gt;&lt;/div&gt;&lt;div&gt;couldn&#39;t be &lt;br&gt;&lt;/div&gt;&lt;div&gt;calculated&lt;/div&gt;" style="rounded=1;whiteSpace=wrap;html=1;" parent="1" vertex="1">
          <mxGeometry x="480.5" y="184" width="120" height="60" as="geometry" />
        </mxCell>
        <mxCell id="FMS0zSDaVmgN2Xn0Sk3r-16" value="" style="endArrow=classic;html=1;rounded=0;exitX=1;exitY=0.5;exitDx=0;exitDy=0;entryX=0.5;entryY=0;entryDx=0;entryDy=0;" parent="1" source="FMS0zSDaVmgN2Xn0Sk3r-10" target="FMS0zSDaVmgN2Xn0Sk3r-18" edge="1">
          <mxGeometry relative="1" as="geometry">
            <mxPoint x="413" y="215" as="sourcePoint" />
            <mxPoint x="672" y="180" as="targetPoint" />
            <Array as="points">
              <mxPoint x="588" y="105" />
              <mxPoint x="672" y="105" />
            </Array>
          </mxGeometry>
        </mxCell>
        <mxCell id="FMS0zSDaVmgN2Xn0Sk3r-17" value="Yes" style="edgeLabel;resizable=0;html=1;align=center;verticalAlign=middle;" parent="FMS0zSDaVmgN2Xn0Sk3r-16" connectable="0" vertex="1">
          <mxGeometry relative="1" as="geometry">
            <mxPoint x="-47" as="offset" />
          </mxGeometry>
        </mxCell>
        <mxCell id="FMS0zSDaVmgN2Xn0Sk3r-18" value="Get trip details" style="rounded=1;whiteSpace=wrap;html=1;" parent="1" vertex="1">
          <mxGeometry x="612" y="182" width="120" height="60" as="geometry" />
        </mxCell>
        <mxCell id="FMS0zSDaVmgN2Xn0Sk3r-19" value="" style="endArrow=classic;html=1;rounded=0;exitX=0.5;exitY=1;exitDx=0;exitDy=0;entryX=0.5;entryY=0;entryDx=0;entryDy=0;" parent="1" source="FMS0zSDaVmgN2Xn0Sk3r-18" target="FMS0zSDaVmgN2Xn0Sk3r-20" edge="1">
          <mxGeometry width="50" height="50" relative="1" as="geometry">
            <mxPoint x="438" y="240" as="sourcePoint" />
            <mxPoint x="672" y="277" as="targetPoint" />
          </mxGeometry>
        </mxCell>
        <mxCell id="FMS0zSDaVmgN2Xn0Sk3r-20" value="" style="rhombus;whiteSpace=wrap;html=1;" parent="1" vertex="1">
          <mxGeometry x="661.5" y="286" width="21" height="21" as="geometry" />
        </mxCell>
        <mxCell id="FMS0zSDaVmgN2Xn0Sk3r-21" value="" style="endArrow=classic;html=1;rounded=0;exitX=1;exitY=0.5;exitDx=0;exitDy=0;entryX=0.5;entryY=0;entryDx=0;entryDy=0;" parent="1" source="FMS0zSDaVmgN2Xn0Sk3r-20" target="FMS0zSDaVmgN2Xn0Sk3r-3" edge="1">
          <mxGeometry relative="1" as="geometry">
            <mxPoint x="413" y="215" as="sourcePoint" />
            <mxPoint x="136" y="22" as="targetPoint" />
            <Array as="points">
              <mxPoint x="804" y="297" />
              <mxPoint x="804" y="20" />
              <mxPoint x="148" y="22" />
            </Array>
          </mxGeometry>
        </mxCell>
        <mxCell id="FMS0zSDaVmgN2Xn0Sk3r-22" value="No" style="edgeLabel;resizable=0;html=1;align=center;verticalAlign=middle;" parent="FMS0zSDaVmgN2Xn0Sk3r-21" connectable="0" vertex="1">
          <mxGeometry relative="1" as="geometry">
            <mxPoint x="76" y="275" as="offset" />
          </mxGeometry>
        </mxCell>
        <mxCell id="FMS0zSDaVmgN2Xn0Sk3r-24" value="" style="endArrow=classic;html=1;rounded=0;exitX=0.5;exitY=1;exitDx=0;exitDy=0;" parent="1" source="FMS0zSDaVmgN2Xn0Sk3r-20" edge="1">
          <mxGeometry relative="1" as="geometry">
            <mxPoint x="412" y="375" as="sourcePoint" />
            <mxPoint x="672" y="361" as="targetPoint" />
          </mxGeometry>
        </mxCell>
        <mxCell id="FMS0zSDaVmgN2Xn0Sk3r-25" value="Yes" style="edgeLabel;resizable=0;html=1;align=center;verticalAlign=middle;" parent="FMS0zSDaVmgN2Xn0Sk3r-24" connectable="0" vertex="1">
          <mxGeometry relative="1" as="geometry" />
        </mxCell>
        <mxCell id="FMS0zSDaVmgN2Xn0Sk3r-26" value="Take Car" style="rounded=1;whiteSpace=wrap;html=1;" parent="1" vertex="1">
          <mxGeometry x="612" y="360" width="120" height="60" as="geometry" />
        </mxCell>
        <mxCell id="FMS0zSDaVmgN2Xn0Sk3r-27" value="" style="endArrow=classic;html=1;rounded=0;exitX=0.5;exitY=1;exitDx=0;exitDy=0;" parent="1" source="FMS0zSDaVmgN2Xn0Sk3r-26" edge="1">
          <mxGeometry width="50" height="50" relative="1" as="geometry">
            <mxPoint x="437" y="400" as="sourcePoint" />
            <mxPoint x="672" y="449" as="targetPoint" />
          </mxGeometry>
        </mxCell>
        <mxCell id="FMS0zSDaVmgN2Xn0Sk3r-28" value="" style="rhombus;whiteSpace=wrap;html=1;" parent="1" vertex="1">
          <mxGeometry x="661.5" y="450" width="21" height="21" as="geometry" />
        </mxCell>
        <mxCell id="FMS0zSDaVmgN2Xn0Sk3r-29" value="&lt;i&gt;Share trip details?&lt;/i&gt;" style="text;html=1;align=center;verticalAlign=middle;resizable=0;points=[];autosize=1;strokeColor=none;fillColor=none;" parent="1" vertex="1">
          <mxGeometry x="542" y="447.5" width="117" height="26" as="geometry" />
        </mxCell>
        <mxCell id="FMS0zSDaVmgN2Xn0Sk3r-30" value="" style="endArrow=classic;html=1;rounded=0;exitX=1;exitY=0.5;exitDx=0;exitDy=0;" parent="1" source="FMS0zSDaVmgN2Xn0Sk3r-28" edge="1">
          <mxGeometry relative="1" as="geometry">
            <mxPoint x="412" y="375" as="sourcePoint" />
            <mxPoint x="784" y="527" as="targetPoint" />
            <Array as="points">
              <mxPoint x="784" y="461" />
            </Array>
          </mxGeometry>
        </mxCell>
        <mxCell id="FMS0zSDaVmgN2Xn0Sk3r-31" value="Yes" style="edgeLabel;resizable=0;html=1;align=center;verticalAlign=middle;" parent="FMS0zSDaVmgN2Xn0Sk3r-30" connectable="0" vertex="1">
          <mxGeometry relative="1" as="geometry">
            <mxPoint x="-41" as="offset" />
          </mxGeometry>
        </mxCell>
        <mxCell id="FMS0zSDaVmgN2Xn0Sk3r-32" value="Send message to contact list" style="rounded=1;whiteSpace=wrap;html=1;" parent="1" vertex="1">
          <mxGeometry x="725" y="528" width="120" height="60" as="geometry" />
        </mxCell>
        <mxCell id="FMS0zSDaVmgN2Xn0Sk3r-33" value="" style="rhombus;whiteSpace=wrap;html=1;" parent="1" vertex="1">
          <mxGeometry x="661.5" y="547.5" width="21" height="21" as="geometry" />
        </mxCell>
        <mxCell id="FMS0zSDaVmgN2Xn0Sk3r-34" value="" style="endArrow=classic;html=1;rounded=0;exitX=0;exitY=0.5;exitDx=0;exitDy=0;entryX=1;entryY=0.5;entryDx=0;entryDy=0;" parent="1" source="FMS0zSDaVmgN2Xn0Sk3r-32" target="FMS0zSDaVmgN2Xn0Sk3r-33" edge="1">
          <mxGeometry width="50" height="50" relative="1" as="geometry">
            <mxPoint x="437" y="400" as="sourcePoint" />
            <mxPoint x="487" y="350" as="targetPoint" />
          </mxGeometry>
        </mxCell>
        <mxCell id="FMS0zSDaVmgN2Xn0Sk3r-35" value="" style="endArrow=classic;html=1;rounded=0;exitX=0.5;exitY=1;exitDx=0;exitDy=0;entryX=0.5;entryY=0;entryDx=0;entryDy=0;" parent="1" source="FMS0zSDaVmgN2Xn0Sk3r-28" target="FMS0zSDaVmgN2Xn0Sk3r-33" edge="1">
          <mxGeometry relative="1" as="geometry">
            <mxPoint x="412" y="375" as="sourcePoint" />
            <mxPoint x="512" y="375" as="targetPoint" />
          </mxGeometry>
        </mxCell>
        <mxCell id="FMS0zSDaVmgN2Xn0Sk3r-36" value="No" style="edgeLabel;resizable=0;html=1;align=center;verticalAlign=middle;" parent="FMS0zSDaVmgN2Xn0Sk3r-35" connectable="0" vertex="1">
          <mxGeometry relative="1" as="geometry" />
        </mxCell>
        <mxCell id="FMS0zSDaVmgN2Xn0Sk3r-37" value="" style="endArrow=classic;html=1;rounded=0;exitX=0;exitY=0.5;exitDx=0;exitDy=0;" parent="1" source="FMS0zSDaVmgN2Xn0Sk3r-33" edge="1">
          <mxGeometry width="50" height="50" relative="1" as="geometry">
            <mxPoint x="437" y="400" as="sourcePoint" />
            <mxPoint x="625" y="558" as="targetPoint" />
          </mxGeometry>
        </mxCell>
        <mxCell id="FMS0zSDaVmgN2Xn0Sk3r-38" value="" style="rhombus;whiteSpace=wrap;html=1;" parent="1" vertex="1">
          <mxGeometry x="605" y="547.5" width="21" height="21" as="geometry" />
        </mxCell>
        <mxCell id="FMS0zSDaVmgN2Xn0Sk3r-39" value="&lt;i&gt;Share payment?&lt;/i&gt;" style="text;html=1;align=center;verticalAlign=middle;resizable=0;points=[];autosize=1;strokeColor=none;fillColor=none;" parent="1" vertex="1">
          <mxGeometry x="555" y="521.5" width="109" height="26" as="geometry" />
        </mxCell>
        <mxCell id="FMS0zSDaVmgN2Xn0Sk3r-40" value="" style="endArrow=classic;html=1;rounded=0;exitX=0.5;exitY=1;exitDx=0;exitDy=0;" parent="1" source="FMS0zSDaVmgN2Xn0Sk3r-38" edge="1">
          <mxGeometry relative="1" as="geometry">
            <mxPoint x="412" y="375" as="sourcePoint" />
            <mxPoint x="524" y="642" as="targetPoint" />
            <Array as="points">
              <mxPoint x="616" y="642" />
            </Array>
          </mxGeometry>
        </mxCell>
        <mxCell id="FMS0zSDaVmgN2Xn0Sk3r-41" value="Yes" style="edgeLabel;resizable=0;html=1;align=center;verticalAlign=middle;" parent="FMS0zSDaVmgN2Xn0Sk3r-40" connectable="0" vertex="1">
          <mxGeometry relative="1" as="geometry">
            <mxPoint x="9" y="-39" as="offset" />
          </mxGeometry>
        </mxCell>
        <mxCell id="FMS0zSDaVmgN2Xn0Sk3r-42" value="Choose person to share price with" style="rounded=1;whiteSpace=wrap;html=1;" parent="1" vertex="1">
          <mxGeometry x="405" y="612" width="120" height="60" as="geometry" />
        </mxCell>
        <mxCell id="FMS0zSDaVmgN2Xn0Sk3r-43" value="" style="endArrow=classic;html=1;rounded=0;exitX=0;exitY=0.5;exitDx=0;exitDy=0;entryX=0.5;entryY=1;entryDx=0;entryDy=0;" parent="1" source="FMS0zSDaVmgN2Xn0Sk3r-42" target="FMS0zSDaVmgN2Xn0Sk3r-46" edge="1">
          <mxGeometry width="50" height="50" relative="1" as="geometry">
            <mxPoint x="437" y="503" as="sourcePoint" />
            <mxPoint x="302" y="582" as="targetPoint" />
            <Array as="points">
              <mxPoint x="291" y="642" />
            </Array>
          </mxGeometry>
        </mxCell>
        <mxCell id="FMS0zSDaVmgN2Xn0Sk3r-44" value="" style="endArrow=classic;html=1;rounded=0;exitX=0;exitY=0.5;exitDx=0;exitDy=0;entryX=1;entryY=0.5;entryDx=0;entryDy=0;" parent="1" source="FMS0zSDaVmgN2Xn0Sk3r-38" target="FMS0zSDaVmgN2Xn0Sk3r-46" edge="1">
          <mxGeometry relative="1" as="geometry">
            <mxPoint x="412" y="478" as="sourcePoint" />
            <mxPoint x="303" y="560" as="targetPoint" />
          </mxGeometry>
        </mxCell>
        <mxCell id="FMS0zSDaVmgN2Xn0Sk3r-45" value="No" style="edgeLabel;resizable=0;html=1;align=center;verticalAlign=middle;" parent="FMS0zSDaVmgN2Xn0Sk3r-44" connectable="0" vertex="1">
          <mxGeometry relative="1" as="geometry" />
        </mxCell>
        <mxCell id="FMS0zSDaVmgN2Xn0Sk3r-46" value="" style="rhombus;whiteSpace=wrap;html=1;" parent="1" vertex="1">
          <mxGeometry x="282" y="547.5" width="21" height="21" as="geometry" />
        </mxCell>
        <mxCell id="FMS0zSDaVmgN2Xn0Sk3r-47" value="" style="endArrow=classic;html=1;rounded=0;exitX=0;exitY=0.5;exitDx=0;exitDy=0;" parent="1" source="FMS0zSDaVmgN2Xn0Sk3r-46" target="FMS0zSDaVmgN2Xn0Sk3r-48" edge="1">
          <mxGeometry width="50" height="50" relative="1" as="geometry">
            <mxPoint x="437" y="503" as="sourcePoint" />
            <mxPoint x="198" y="558" as="targetPoint" />
          </mxGeometry>
        </mxCell>
        <mxCell id="FMS0zSDaVmgN2Xn0Sk3r-48" value="Approve Payment" style="rounded=1;whiteSpace=wrap;html=1;" parent="1" vertex="1">
          <mxGeometry x="132" y="528" width="120" height="60" as="geometry" />
        </mxCell>
        <mxCell id="FMS0zSDaVmgN2Xn0Sk3r-49" value="" style="endArrow=classic;html=1;rounded=0;exitX=0.5;exitY=0;exitDx=0;exitDy=0;entryX=0.5;entryY=1;entryDx=0;entryDy=0;" parent="1" source="FMS0zSDaVmgN2Xn0Sk3r-48" target="FMS0zSDaVmgN2Xn0Sk3r-50" edge="1">
          <mxGeometry width="50" height="50" relative="1" as="geometry">
            <mxPoint x="383" y="415" as="sourcePoint" />
            <mxPoint x="196" y="365" as="targetPoint" />
          </mxGeometry>
        </mxCell>
        <mxCell id="FMS0zSDaVmgN2Xn0Sk3r-50" value="" style="rhombus;whiteSpace=wrap;html=1;" parent="1" vertex="1">
          <mxGeometry x="183" y="345" width="21" height="21" as="geometry" />
        </mxCell>
        <mxCell id="FMS0zSDaVmgN2Xn0Sk3r-51" value="" style="endArrow=classic;html=1;rounded=0;exitX=0;exitY=0.5;exitDx=0;exitDy=0;entryX=0.5;entryY=0;entryDx=0;entryDy=0;" parent="1" source="FMS0zSDaVmgN2Xn0Sk3r-14" target="FMS0zSDaVmgN2Xn0Sk3r-50" edge="1">
          <mxGeometry width="50" height="50" relative="1" as="geometry">
            <mxPoint x="383" y="415" as="sourcePoint" />
            <mxPoint x="186" y="214" as="targetPoint" />
            <Array as="points">
              <mxPoint x="194" y="214" />
            </Array>
          </mxGeometry>
        </mxCell>
        <mxCell id="FMS0zSDaVmgN2Xn0Sk3r-52" value="" style="ellipse;html=1;shape=endState;fillColor=#000000;strokeColor=#ff0000;" parent="1" vertex="1">
          <mxGeometry x="47" y="340.5" width="30" height="30" as="geometry" />
        </mxCell>
        <mxCell id="FMS0zSDaVmgN2Xn0Sk3r-53" value="" style="endArrow=classic;html=1;rounded=0;exitX=0;exitY=0.5;exitDx=0;exitDy=0;entryX=1;entryY=0.5;entryDx=0;entryDy=0;" parent="1" source="FMS0zSDaVmgN2Xn0Sk3r-50" target="FMS0zSDaVmgN2Xn0Sk3r-52" edge="1">
          <mxGeometry width="50" height="50" relative="1" as="geometry">
            <mxPoint x="257" y="382" as="sourcePoint" />
            <mxPoint x="307" y="332" as="targetPoint" />
          </mxGeometry>
        </mxCell>
      </root>
    </mxGraphModel>
  </diagram>
  <diagram id="rvNOyO8NNS72kOcuihCY" name="Page-2">
    <mxGraphModel dx="1189" dy="752" grid="0" gridSize="10" guides="1" tooltips="1" connect="1" arrows="1" fold="1" page="1" pageScale="1" pageWidth="1400" pageHeight="850" math="0" shadow="0">
      <root>
        <mxCell id="0" />
        <mxCell id="1" parent="0" />
        <mxCell id="4cHpKl8RJDheFJ0X95No-2" value="&amp;lt;&amp;lt;access&amp;gt;&amp;gt;" style="endArrow=block;endSize=16;endFill=0;html=1;rounded=0;entryX=1;entryY=0.493;entryDx=0;entryDy=0;entryPerimeter=0;" edge="1" parent="1">
          <mxGeometry width="160" relative="1" as="geometry">
            <mxPoint x="532" y="80.06" as="sourcePoint" />
            <mxPoint x="319" y="79.99600000000004" as="targetPoint" />
          </mxGeometry>
        </mxCell>
        <mxCell id="4cHpKl8RJDheFJ0X95No-4" value="" style="shape=folder;fontStyle=1;spacingTop=10;tabWidth=128;tabHeight=23;tabPosition=left;html=1;" vertex="1" parent="1">
          <mxGeometry x="25" y="18" width="294" height="111" as="geometry" />
        </mxCell>
        <mxCell id="4cHpKl8RJDheFJ0X95No-5" value="&lt;div&gt;User module&lt;/div&gt;" style="text;html=1;align=center;verticalAlign=middle;resizable=0;points=[];autosize=1;strokeColor=none;fillColor=none;" vertex="1" parent="1">
          <mxGeometry x="21" y="18" width="90" height="26" as="geometry" />
        </mxCell>
        <mxCell id="4cHpKl8RJDheFJ0X95No-6" value="" style="shape=folder;fontStyle=1;spacingTop=10;tabWidth=110;tabHeight=21;tabPosition=left;html=1;" vertex="1" parent="1">
          <mxGeometry x="528" y="18" width="243" height="113" as="geometry" />
        </mxCell>
        <mxCell id="4cHpKl8RJDheFJ0X95No-7" value="Trip module" style="text;html=1;align=center;verticalAlign=middle;resizable=0;points=[];autosize=1;strokeColor=none;fillColor=none;" vertex="1" parent="1">
          <mxGeometry x="521" y="16" width="84" height="26" as="geometry" />
        </mxCell>
        <mxCell id="4cHpKl8RJDheFJ0X95No-8" value="" style="shape=folder;fontStyle=1;spacingTop=10;tabWidth=100;tabHeight=17;tabPosition=left;html=1;" vertex="1" parent="1">
          <mxGeometry x="192" y="302" width="180" height="70" as="geometry" />
        </mxCell>
        <mxCell id="4cHpKl8RJDheFJ0X95No-9" value="" style="shape=folder;fontStyle=1;spacingTop=10;tabWidth=98;tabHeight=18;tabPosition=left;html=1;" vertex="1" parent="1">
          <mxGeometry x="192" y="212" width="178" height="67" as="geometry" />
        </mxCell>
        <mxCell id="4cHpKl8RJDheFJ0X95No-10" value="" style="shape=folder;fontStyle=1;spacingTop=10;tabWidth=98;tabHeight=19;tabPosition=left;html=1;" vertex="1" parent="1">
          <mxGeometry x="192" y="392" width="179" height="83" as="geometry" />
        </mxCell>
        <mxCell id="4cHpKl8RJDheFJ0X95No-11" value="Payment module" style="text;html=1;align=center;verticalAlign=middle;resizable=0;points=[];autosize=1;strokeColor=none;fillColor=none;" vertex="1" parent="1">
          <mxGeometry x="186" y="388" width="111" height="26" as="geometry" />
        </mxCell>
        <mxCell id="4cHpKl8RJDheFJ0X95No-13" value="Profile" style="text;html=1;align=center;verticalAlign=middle;resizable=0;points=[];autosize=1;strokeColor=none;fillColor=none;" vertex="1" parent="1">
          <mxGeometry x="186" y="297" width="53" height="26" as="geometry" />
        </mxCell>
        <mxCell id="4cHpKl8RJDheFJ0X95No-14" value="Auth" style="text;html=1;align=center;verticalAlign=middle;resizable=0;points=[];autosize=1;strokeColor=none;fillColor=none;" vertex="1" parent="1">
          <mxGeometry x="186" y="207" width="42" height="26" as="geometry" />
        </mxCell>
        <mxCell id="4cHpKl8RJDheFJ0X95No-15" value="&amp;lt;&amp;lt;use&amp;gt;&amp;gt;" style="endArrow=block;endSize=16;endFill=0;html=1;rounded=0;exitX=0.5;exitY=1;exitDx=0;exitDy=0;exitPerimeter=0;entryX=0;entryY=0;entryDx=0;entryDy=42.5;entryPerimeter=0;" edge="1" parent="1" source="4cHpKl8RJDheFJ0X95No-4" target="4cHpKl8RJDheFJ0X95No-9">
          <mxGeometry width="160" relative="1" as="geometry">
            <mxPoint x="502" y="354" as="sourcePoint" />
            <mxPoint x="662" y="354" as="targetPoint" />
            <Array as="points">
              <mxPoint x="172" y="159" />
              <mxPoint x="104" y="159" />
              <mxPoint x="104" y="255" />
            </Array>
          </mxGeometry>
        </mxCell>
        <mxCell id="4cHpKl8RJDheFJ0X95No-17" value="" style="endArrow=block;endSize=16;endFill=0;html=1;rounded=0;entryX=0;entryY=0;entryDx=0;entryDy=51;entryPerimeter=0;" edge="1" parent="1" target="4cHpKl8RJDheFJ0X95No-10">
          <mxGeometry width="160" relative="1" as="geometry">
            <mxPoint x="104" y="255" as="sourcePoint" />
            <mxPoint x="106" y="577" as="targetPoint" />
            <Array as="points">
              <mxPoint x="104" y="445" />
            </Array>
          </mxGeometry>
        </mxCell>
        <mxCell id="4cHpKl8RJDheFJ0X95No-18" value="" style="endArrow=block;endSize=16;endFill=0;html=1;rounded=0;" edge="1" parent="1" target="4cHpKl8RJDheFJ0X95No-8">
          <mxGeometry width="160" relative="1" as="geometry">
            <mxPoint x="102" y="341" as="sourcePoint" />
            <mxPoint x="193" y="345" as="targetPoint" />
          </mxGeometry>
        </mxCell>
        <mxCell id="4cHpKl8RJDheFJ0X95No-19" value="&amp;lt;&amp;lt;use&amp;gt;&amp;gt;" style="endArrow=block;endSize=16;endFill=0;html=1;rounded=0;exitX=0.25;exitY=1;exitDx=0;exitDy=0;exitPerimeter=0;entryX=0;entryY=0;entryDx=0;entryDy=34;entryPerimeter=0;" edge="1" parent="1" source="4cHpKl8RJDheFJ0X95No-10" target="4cHpKl8RJDheFJ0X95No-25">
          <mxGeometry x="-0.6771" width="160" relative="1" as="geometry">
            <mxPoint x="502" y="354" as="sourcePoint" />
            <mxPoint x="237" y="755" as="targetPoint" />
            <Array as="points">
              <mxPoint x="237" y="567" />
              <mxPoint x="237" y="686" />
            </Array>
            <mxPoint as="offset" />
          </mxGeometry>
        </mxCell>
        <mxCell id="4cHpKl8RJDheFJ0X95No-20" value="" style="shape=folder;fontStyle=1;spacingTop=10;tabWidth=50;tabHeight=15;tabPosition=left;html=1;" vertex="1" parent="1">
          <mxGeometry x="267" y="539" width="104" height="50" as="geometry" />
        </mxCell>
        <mxCell id="4cHpKl8RJDheFJ0X95No-21" value="" style="endArrow=block;endSize=16;endFill=0;html=1;rounded=0;entryX=0;entryY=0;entryDx=0;entryDy=32;entryPerimeter=0;" edge="1" parent="1" target="4cHpKl8RJDheFJ0X95No-20">
          <mxGeometry width="160" relative="1" as="geometry">
            <mxPoint x="237" y="571" as="sourcePoint" />
            <mxPoint x="662" y="444" as="targetPoint" />
          </mxGeometry>
        </mxCell>
        <mxCell id="4cHpKl8RJDheFJ0X95No-22" value="Single" style="text;html=1;align=center;verticalAlign=middle;resizable=0;points=[];autosize=1;strokeColor=none;fillColor=none;" vertex="1" parent="1">
          <mxGeometry x="260" y="532" width="53" height="26" as="geometry" />
        </mxCell>
        <mxCell id="4cHpKl8RJDheFJ0X95No-24" value="" style="shape=folder;fontStyle=1;spacingTop=10;tabWidth=40;tabHeight=14;tabPosition=left;html=1;" vertex="1" parent="1">
          <mxGeometry x="625" y="387" width="70" height="50" as="geometry" />
        </mxCell>
        <mxCell id="4cHpKl8RJDheFJ0X95No-25" value="" style="shape=folder;fontStyle=1;spacingTop=10;tabWidth=47;tabHeight=16;tabPosition=left;html=1;" vertex="1" parent="1">
          <mxGeometry x="269" y="650" width="102" height="52" as="geometry" />
        </mxCell>
        <mxCell id="4cHpKl8RJDheFJ0X95No-26" value="Shared" style="text;html=1;align=center;verticalAlign=middle;resizable=0;points=[];autosize=1;strokeColor=none;fillColor=none;" vertex="1" parent="1">
          <mxGeometry x="264" y="646" width="58" height="26" as="geometry" />
        </mxCell>
        <mxCell id="4cHpKl8RJDheFJ0X95No-28" value="" style="endArrow=none;html=1;rounded=0;entryX=0.5;entryY=1;entryDx=0;entryDy=0;entryPerimeter=0;" edge="1" parent="1" target="4cHpKl8RJDheFJ0X95No-6">
          <mxGeometry width="50" height="50" relative="1" as="geometry">
            <mxPoint x="650" y="165" as="sourcePoint" />
            <mxPoint x="607" y="269" as="targetPoint" />
          </mxGeometry>
        </mxCell>
        <mxCell id="4cHpKl8RJDheFJ0X95No-29" value="" style="endArrow=none;html=1;rounded=0;" edge="1" parent="1">
          <mxGeometry width="50" height="50" relative="1" as="geometry">
            <mxPoint x="556.5" y="166" as="sourcePoint" />
            <mxPoint x="742.5" y="166" as="targetPoint" />
          </mxGeometry>
        </mxCell>
        <mxCell id="4cHpKl8RJDheFJ0X95No-30" value="&amp;lt;&amp;lt;import&amp;gt;&amp;gt;" style="endArrow=block;endSize=16;endFill=0;html=1;rounded=0;" edge="1" parent="1">
          <mxGeometry x="-0.3253" width="160" relative="1" as="geometry">
            <mxPoint x="743" y="165" as="sourcePoint" />
            <mxPoint x="743" y="248" as="targetPoint" />
            <mxPoint as="offset" />
          </mxGeometry>
        </mxCell>
        <mxCell id="4cHpKl8RJDheFJ0X95No-31" value="" style="shape=folder;fontStyle=1;spacingTop=10;tabWidth=83;tabHeight=18;tabPosition=left;html=1;" vertex="1" parent="1">
          <mxGeometry x="703" y="247" width="167" height="62" as="geometry" />
        </mxCell>
        <mxCell id="4cHpKl8RJDheFJ0X95No-32" value="SMS gate" style="text;html=1;align=center;verticalAlign=middle;resizable=0;points=[];autosize=1;strokeColor=none;fillColor=none;" vertex="1" parent="1">
          <mxGeometry x="696" y="244" width="70" height="26" as="geometry" />
        </mxCell>
        <mxCell id="4cHpKl8RJDheFJ0X95No-34" value="" style="endArrow=block;endSize=16;endFill=0;html=1;rounded=0;entryX=0;entryY=0;entryDx=0;entryDy=32;entryPerimeter=0;" edge="1" parent="1" target="4cHpKl8RJDheFJ0X95No-24">
          <mxGeometry width="160" relative="1" as="geometry">
            <mxPoint x="558" y="419" as="sourcePoint" />
            <mxPoint x="661" y="293" as="targetPoint" />
          </mxGeometry>
        </mxCell>
        <mxCell id="4cHpKl8RJDheFJ0X95No-35" value="" style="endArrow=block;endSize=16;endFill=0;html=1;rounded=0;entryX=0;entryY=0;entryDx=0;entryDy=32.5;entryPerimeter=0;" edge="1" parent="1" target="4cHpKl8RJDheFJ0X95No-36">
          <mxGeometry width="160" relative="1" as="geometry">
            <mxPoint x="558" y="538" as="sourcePoint" />
            <mxPoint x="613" y="533" as="targetPoint" />
          </mxGeometry>
        </mxCell>
        <mxCell id="4cHpKl8RJDheFJ0X95No-36" value="" style="shape=folder;fontStyle=1;spacingTop=10;tabWidth=40;tabHeight=14;tabPosition=left;html=1;" vertex="1" parent="1">
          <mxGeometry x="625" y="505" width="71" height="51" as="geometry" />
        </mxCell>
        <mxCell id="4cHpKl8RJDheFJ0X95No-38" value="Book" style="text;html=1;align=center;verticalAlign=middle;resizable=0;points=[];autosize=1;strokeColor=none;fillColor=none;" vertex="1" parent="1">
          <mxGeometry x="618" y="498" width="46" height="26" as="geometry" />
        </mxCell>
        <mxCell id="4cHpKl8RJDheFJ0X95No-39" value="Search" style="text;html=1;align=center;verticalAlign=middle;resizable=0;points=[];autosize=1;strokeColor=none;fillColor=none;" vertex="1" parent="1">
          <mxGeometry x="616" y="380" width="57" height="26" as="geometry" />
        </mxCell>
        <mxCell id="4cHpKl8RJDheFJ0X95No-40" value="" style="endArrow=none;html=1;rounded=0;startArrow=none;" edge="1" parent="1" source="4cHpKl8RJDheFJ0X95No-41">
          <mxGeometry width="50" height="50" relative="1" as="geometry">
            <mxPoint x="557" y="166" as="sourcePoint" />
            <mxPoint x="559" y="539" as="targetPoint" />
          </mxGeometry>
        </mxCell>
        <mxCell id="4cHpKl8RJDheFJ0X95No-41" value="&amp;lt;&amp;lt;use&amp;gt;&amp;gt;" style="text;html=1;align=center;verticalAlign=middle;resizable=0;points=[];autosize=1;strokeColor=none;fillColor=none;" vertex="1" parent="1">
          <mxGeometry x="523" y="186" width="67" height="26" as="geometry" />
        </mxCell>
        <mxCell id="4cHpKl8RJDheFJ0X95No-42" value="" style="endArrow=none;html=1;rounded=0;" edge="1" parent="1" target="4cHpKl8RJDheFJ0X95No-41">
          <mxGeometry width="50" height="50" relative="1" as="geometry">
            <mxPoint x="557" y="166" as="sourcePoint" />
            <mxPoint x="559" y="539" as="targetPoint" />
          </mxGeometry>
        </mxCell>
      </root>
    </mxGraphModel>
  </diagram>
</mxfile>
